<svg width="333" height="178" viewBox="0 0 333 178" fill="none" xmlns="http://www.w3.org/2000/svg">
<path d="M2.95495 2.80995C2.95495 2.80995 9.29565 3.10273 13.1626 3.75856C17.0295 4.41439 25.1789 1.77937 30.3329 1.77937C35.4868 1.77937 58.9979 1.12061 67.0499 1.77937C75.1019 2.43812 95.7149 1.77937 102.156 1.77937C108.597 1.77937 126.957 2.36493 134.043 2.07215C141.129 1.77937 166.434 0.447215 177.596 1.25822C188.879 2.08093 215.168 1.97846 220.124 2.24782C231.928 2.88608 245.234 3.00026 251.833 2.5406C258.432 2.08093 268.972 1.00057 272.007 1.00057C275.043 1.00057 295.481 2.17169 301.068 2.35907C317.464 2.88315 325.453 2.76604 328.873 2.5728C328.873 2.5728 333.07 36.4504 331.74 56.0462C330.409 75.6421 330.791 79.3252 330.791 85.1457C330.791 90.9662 328.497 96.7867 328.497 100.663C328.497 104.539 328.225 135.849 328.036 139.339C328.036 139.339 328.113 166.378 328.896 171.709C328.925 171.888 329.687 177.041 329.515 177C326.952 176.379 309.791 175.647 301.297 176.438C292.804 177.228 209.329 174.476 195.498 175.998C181.667 177.521 130.497 174.476 103.526 175.887C77.5155 177.252 7.8366 173.507 3.1986 173.056C3.12765 173.049 3.0619 173.015 3.0142 172.961C2.9665 172.906 2.94026 172.836 2.94062 172.763V142.094C2.94062 138.944 3.46519 133.053 3.46519 121.307C3.46519 109.561 3.05528 101.146 3.05528 96.9448C3.05528 92.7434 1 78.6753 1 74.6934C1 70.7116 1.40991 63.7727 1.40991 58.3124C1.40991 52.852 2.02621 47.3917 2.02621 42.9824C2.02621 38.5731 3.05528 30.1703 3.26167 25.9718C3.46806 21.7734 2.94062 2.84216 2.94062 2.84216" stroke="#B8B8B8" stroke-width="2" stroke-linecap="round" stroke-linejoin="round"/>
</svg>
